# xmcd CD database file
#
# Track frame offsets:
#	150
#	17050
#	31320
#	43755
#	55935
#	65420
#	82045
#	96145
#	108735
#	123650
#
# Disc length: 1792 seconds
#
# Revision: 1
# Processed by: cddbd v1.4PL0 Copyright (c) Steve Scherf et al.
# Submitted via: CDex 1.40Release
#
DISCID=8806fe0a
DTITLE=Merle Haggard - Today I Started Loving You Again
DYEAR=1996
DGENRE=Country
TTITLE0=Today I Started Loving You Again
TTITLE1=Branded Man
TTITLE2=If We Make It Through December
TTITLE3=I Take A Lot Of Pride In What I Am
TTITLE4=Legend Of Bonnie And Clyde
TTITLE5=Daddy Frank (The Guitar Man)
TTITLE6=Always Wanting You
TTITLE7=It's Been A Great Afternoon
TTITLE8=Honey Hungry
TTITLE9=You And Your Precious Love
EXTD=YEAR: 1996 ID3G: 2
EXTT0=
EXTT1=
EXTT2=
EXTT3=
EXTT4=
EXTT5=
EXTT6=
EXTT7=
EXTT8=
EXTT9=
PLAYORDER=
